<?xml version="1.0" encoding="UTF-8" standalone="no"?>
<!DOCTYPE svg PUBLIC "-//W3C//DTD SVG 1.1//EN" "http://www.w3.org/Graphics/SVG/1.1/DTD/svg11.dtd">
<svg version="1.1" xmlns="http://www.w3.org/2000/svg" xmlns:xlink="http://www.w3.org/1999/xlink" preserveAspectRatio="xMidYMid meet" viewBox="0 0 640 640" width="640" height="640"><defs><path d="" id="a2EHBh20WE"></path><path d="M129.29 154.69L129.98 154.75L130.66 154.85L131.34 154.96L132 155.11L132.66 155.28L133.31 155.47L133.96 155.69L134.59 155.93L135.21 156.2L135.82 156.48L136.42 156.79L137 157.13L137.58 157.48L138.14 157.86L138.68 158.25L139.21 158.67L139.73 159.11L140.22 159.56L140.71 160.04L141.17 160.53L141.62 161.04L142.04 161.57L142.45 162.12L142.84 162.69L143.2 163.27L143.55 163.87L143.87 164.48L144.17 165.11L144.45 165.75L144.7 166.41L144.93 167.08L145.13 167.77L145.31 168.47L171.69 282.53L173.46 282.97L175.98 283.71L171.64 181.22L171.63 180.51L171.64 179.8L171.68 179.09L171.75 178.4L171.85 177.71L171.97 177.03L172.12 176.36L172.3 175.7L172.5 175.05L172.73 174.41L172.98 173.78L173.25 173.17L173.55 172.56L173.87 171.97L174.21 171.4L174.57 170.83L174.95 170.29L175.36 169.76L175.78 169.24L176.22 168.74L176.69 168.26L177.17 167.8L177.66 167.35L178.18 166.93L178.71 166.52L179.26 166.13L179.82 165.77L180.4 165.43L180.99 165.1L181.6 164.81L182.22 164.53L182.85 164.28L183.49 164.05L184.15 163.85L184.82 163.67L185.5 163.52L186.18 163.39L186.88 163.3L187.59 163.23L188.3 163.19L189.68 163.14L190.4 163.12L191.11 163.14L191.82 163.19L192.52 163.26L193.21 163.36L193.89 163.49L194.56 163.64L195.22 163.82L195.88 164.02L196.52 164.25L197.15 164.5L197.77 164.78L198.37 165.08L198.96 165.4L199.54 165.74L200.11 166.11L200.65 166.49L201.19 166.9L201.71 167.33L202.21 167.77L202.69 168.23L203.15 168.72L203.6 169.22L204.03 169.73L204.44 170.27L204.83 170.81L205.19 171.38L205.54 171.96L205.86 172.55L206.17 173.16L206.44 173.78L206.7 174.42L206.93 175.06L207.14 175.72L207.32 176.39L207.47 177.07L207.6 177.76L207.7 178.46L207.77 179.17L207.82 179.89L213.23 307.7L214.31 308.85L216.57 311.44L218.76 314.13L220.86 316.9L222.89 319.77L224.83 322.72L226.68 325.76L228.44 328.88L230.11 332.08L231.68 335.36L233.08 338.56L258.13 288.02L258.46 287.38L258.81 286.76L259.19 286.16L259.59 285.57L260 285.01L260.44 284.47L260.89 283.94L261.36 283.44L261.85 282.95L262.35 282.49L262.87 282.05L263.41 281.63L263.96 281.23L264.52 280.85L265.09 280.49L265.68 280.16L266.28 279.84L266.89 279.55L267.51 279.29L268.14 279.04L268.77 278.82L269.42 278.63L270.07 278.45L270.73 278.31L271.39 278.18L272.06 278.08L272.73 278.01L273.41 277.96L274.09 277.93L274.78 277.94L275.46 277.96L276.14 278.02L276.83 278.1L277.51 278.21L278.2 278.34L278.88 278.5L279.56 278.69L280.23 278.91L280.91 279.15L281.57 279.43L282.82 279.97L283.46 280.26L284.08 280.57L284.67 280.91L285.25 281.27L285.81 281.64L286.35 282.04L286.87 282.46L287.37 282.9L287.85 283.36L288.31 283.83L288.74 284.32L289.16 284.83L289.55 285.35L289.93 285.88L290.28 286.43L290.6 286.99L290.91 287.56L291.19 288.14L291.45 288.74L291.68 289.34L291.89 289.95L292.08 290.57L292.24 291.2L292.38 291.83L292.49 292.47L292.58 293.12L292.64 293.77L292.67 294.42L292.68 295.07L292.67 295.73L292.62 296.39L292.55 297.04L292.45 297.7L292.33 298.36L292.18 299.01L291.99 299.66L291.78 300.31L291.54 300.95L291.28 301.59L290.98 302.22L237.07 410.98L236.55 412.59L235.42 415.7L234.19 418.73L232.85 421.7L231.41 424.6L229.87 427.42L228.23 430.15L226.5 432.81L224.67 435.37L222.75 437.85L220.74 440.23L218.63 442.51L216.44 444.69L214.17 446.77L211.81 448.74L209.37 450.6L206.85 452.34L204.25 453.97L201.57 455.47L198.82 456.85L196 458.1L193.1 459.22L190.13 460.21L187.1 461.05L184 461.76L180.86 462.31L177.73 462.71L174.59 462.96L171.46 463.05L168.33 463L165.21 462.81L162.11 462.47L159.02 461.99L155.96 461.37L152.91 460.62L149.89 459.74L146.9 458.72L143.95 457.58L141.02 456.31L138.14 454.92L135.29 453.4L132.49 451.77L129.74 450.02L127.04 448.16L124.39 446.19L121.8 444.11L119.27 441.92L116.8 439.63L114.4 437.23L112.07 434.74L109.81 432.15L107.62 429.46L105.51 426.69L103.49 423.82L101.55 420.87L99.7 417.83L97.94 414.71L96.27 411.51L94.7 408.23L93.23 404.88L91.87 401.45L90.61 397.95L89.46 394.39L88.42 390.76L87.5 387.07L86.81 383.84L86.8 383.82L86.56 383.28L86.33 382.72L41.08 264.6L40.88 264.05L40.71 263.5L40.56 262.94L40.44 262.38L40.34 261.83L40.26 261.27L40.21 260.71L40.17 260.15L40.17 259.6L40.18 259.04L40.22 258.49L40.27 257.95L40.35 257.41L40.46 256.87L40.58 256.34L40.72 255.81L40.88 255.29L41.07 254.78L41.27 254.27L41.49 253.78L41.73 253.29L41.99 252.81L42.27 252.35L42.57 251.89L42.89 251.45L43.22 251.02L43.57 250.6L43.94 250.19L44.32 249.8L44.73 249.42L45.14 249.06L45.58 248.71L46.03 248.38L46.49 248.07L46.97 247.78L47.47 247.5L47.98 247.24L48.5 247L49.04 246.78L49.59 246.59L50.67 246.23L51.25 246.05L51.82 245.89L52.4 245.76L52.98 245.65L53.56 245.57L54.14 245.5L54.71 245.47L55.29 245.45L55.86 245.45L56.43 245.48L57 245.53L57.56 245.6L58.12 245.69L58.68 245.8L59.22 245.93L59.77 246.09L60.3 246.26L60.83 246.45L61.35 246.66L61.87 246.89L62.37 247.14L62.86 247.41L63.35 247.7L63.82 248L64.28 248.32L64.73 248.66L65.17 249.02L65.6 249.39L66.01 249.78L66.41 250.19L66.79 250.62L67.16 251.06L67.51 251.51L67.85 251.98L68.17 252.47L68.47 252.97L68.75 253.48L69.02 254.01L69.26 254.56L69.49 255.11L94.4 320.14L94.97 318.99L96.51 316.17L98.14 313.44L99.55 311.28L63.42 195.87L63.22 195.19L63.05 194.51L62.92 193.83L62.81 193.15L62.73 192.47L62.68 191.79L62.65 191.12L62.66 190.45L62.69 189.78L62.74 189.11L62.83 188.45L62.94 187.8L63.07 187.15L63.23 186.51L63.42 185.88L63.63 185.26L63.86 184.65L64.12 184.04L64.4 183.45L64.7 182.87L65.03 182.3L65.38 181.74L65.74 181.2L66.14 180.67L66.55 180.16L66.98 179.66L67.43 179.18L67.9 178.72L68.39 178.28L68.9 177.85L69.43 177.44L69.98 177.06L70.54 176.69L71.12 176.35L71.72 176.02L72.34 175.72L72.97 175.45L73.61 175.2L74.28 174.97L74.95 174.77L76.28 174.41L76.98 174.23L77.68 174.09L78.38 173.97L79.08 173.88L79.78 173.82L80.47 173.78L81.17 173.77L81.86 173.79L82.54 173.84L83.23 173.91L83.9 174.01L84.57 174.13L85.24 174.28L85.89 174.45L86.54 174.65L87.18 174.87L87.81 175.11L88.43 175.38L89.04 175.67L89.64 175.98L90.22 176.31L90.79 176.67L91.35 177.05L91.9 177.45L92.43 177.87L92.95 178.31L93.44 178.76L93.93 179.24L94.39 179.74L94.84 180.26L95.27 180.79L95.68 181.35L96.06 181.92L96.43 182.51L96.78 183.11L97.1 183.73L97.4 184.37L97.68 185.03L97.94 185.7L98.17 186.38L129.34 285.95L130.38 285.49L133.28 284.37L134.95 283.81L109.92 175.61L109.77 174.92L109.66 174.22L109.57 173.53L109.51 172.84L109.49 172.15L109.48 171.47L109.51 170.79L109.57 170.12L109.65 169.45L109.75 168.79L109.89 168.13L110.04 167.48L110.23 166.85L110.44 166.22L110.67 165.6L110.92 164.99L111.2 164.39L111.5 163.8L111.83 163.23L112.17 162.67L112.54 162.12L112.93 161.59L113.34 161.07L113.77 160.57L114.22 160.08L114.69 159.62L115.17 159.17L115.68 158.73L116.2 158.32L116.75 157.93L117.3 157.56L117.88 157.21L118.47 156.88L119.08 156.58L119.7 156.3L120.34 156.04L120.99 155.8L121.65 155.6L122.33 155.42L123.03 155.26L124.37 154.99L125.08 154.86L125.79 154.76L126.5 154.69L127.2 154.65L127.91 154.63L128.6 154.65L129.29 154.69Z" id="eStdVLMQe"></path><mask id="maskc3kFotFd4" x="0.17" y="114.63" width="332.52" height="388.42" maskUnits="userSpaceOnUse"><rect x="0.17" y="114.63" width="332.52" height="388.42" fill="white"></rect><use xlink:href="#eStdVLMQe" opacity="1" fill="black"></use></mask><path d="" id="eWr052ycR"></path><path d="M519.18 154.59L519.89 154.66L520.59 154.76L521.31 154.89L522.65 155.16L523.35 155.31L524.03 155.49L524.69 155.7L525.35 155.93L525.98 156.18L526.61 156.46L527.22 156.77L527.81 157.09L528.38 157.44L528.94 157.81L529.48 158.2L530.01 158.61L530.52 159.04L531 159.49L531.47 159.96L531.92 160.44L532.36 160.94L532.77 161.46L533.16 161.99L533.52 162.54L533.87 163.1L534.2 163.67L534.5 164.26L534.78 164.86L535.04 165.47L535.27 166.08L535.48 166.71L535.67 167.35L535.83 168L535.96 168.65L536.07 169.32L536.15 169.98L536.21 170.66L536.24 171.34L536.24 172.02L536.21 172.71L536.15 173.4L536.07 174.09L535.95 174.78L535.81 175.48L511.05 283.73L512.73 284.29L515.63 285.4L516.67 285.86L547.59 186.22L547.82 185.54L548.07 184.87L548.35 184.21L548.65 183.57L548.97 182.95L549.32 182.35L549.68 181.76L550.07 181.19L550.48 180.63L550.9 180.09L551.35 179.58L551.81 179.08L552.29 178.6L552.79 178.14L553.31 177.7L553.84 177.28L554.38 176.88L554.94 176.5L555.51 176.14L556.1 175.8L556.69 175.49L557.3 175.2L557.92 174.93L558.55 174.68L559.19 174.46L559.84 174.26L560.49 174.09L561.15 173.94L561.82 173.82L562.5 173.72L563.18 173.64L563.87 173.6L564.56 173.58L565.25 173.58L565.95 173.62L566.65 173.68L567.35 173.77L568.05 173.88L568.75 174.03L569.45 174.2L570.78 174.56L571.45 174.76L572.12 174.99L572.76 175.24L573.4 175.51L574.01 175.81L574.61 176.13L575.19 176.47L575.76 176.84L576.31 177.22L576.83 177.63L577.35 178.05L577.84 178.5L578.31 178.96L578.76 179.44L579.2 179.93L579.61 180.45L580 180.97L580.37 181.51L580.72 182.07L581.05 182.64L581.35 183.22L581.63 183.81L581.89 184.41L582.13 185.03L582.34 185.65L582.53 186.28L582.69 186.92L582.82 187.57L582.94 188.22L583.02 188.88L583.08 189.54L583.11 190.21L583.12 190.88L583.1 191.56L583.05 192.24L582.97 192.92L582.86 193.6L582.72 194.28L582.56 194.96L582.36 195.64L546.52 311.13L547.93 313.28L549.58 316.01L551.12 318.82L551.7 319.97L576.44 254.89L576.66 254.34L576.91 253.79L577.17 253.26L577.46 252.75L577.76 252.24L578.07 251.76L578.41 251.29L578.76 250.83L579.13 250.39L579.51 249.97L579.91 249.56L580.32 249.17L580.74 248.79L581.18 248.43L581.63 248.09L582.09 247.77L582.56 247.46L583.05 247.17L583.54 246.91L584.04 246.65L584.56 246.42L585.08 246.21L585.6 246.02L586.14 245.84L586.68 245.69L587.23 245.56L587.78 245.44L588.34 245.35L588.91 245.28L589.47 245.23L590.04 245.2L590.62 245.2L591.19 245.21L591.77 245.25L592.35 245.31L592.93 245.39L593.51 245.5L594.08 245.63L594.66 245.79L595.23 245.96L596.32 246.32L596.87 246.52L597.41 246.74L597.93 246.97L598.44 247.23L598.94 247.5L599.42 247.8L599.89 248.11L600.34 248.44L600.77 248.78L601.19 249.15L601.59 249.52L601.98 249.91L602.35 250.32L602.7 250.74L603.03 251.17L603.35 251.61L603.65 252.07L603.93 252.53L604.19 253.01L604.44 253.5L604.66 253.99L604.86 254.5L605.05 255.01L605.21 255.53L605.36 256.05L605.48 256.58L605.58 257.12L605.66 257.66L605.72 258.21L605.76 258.76L605.77 259.31L605.77 259.87L605.74 260.43L605.69 260.98L605.61 261.54L605.51 262.1L605.39 262.66L605.24 263.22L605.07 263.77L604.87 264.32L559.92 382.53L559.7 383.09L559.45 383.63L559.44 383.66L558.76 386.88L557.85 390.58L556.82 394.21L555.68 397.78L554.43 401.28L553.07 404.7L551.61 408.06L550.05 411.34L548.39 414.55L546.64 417.67L544.79 420.71L542.86 423.67L540.84 426.54L538.74 429.32L536.57 432.01L534.31 434.61L531.99 437.11L529.59 439.51L527.13 441.81L524.6 444L522.02 446.09L519.37 448.07L516.68 449.93L513.93 451.69L511.13 453.33L508.29 454.85L505.41 456.24L502.49 457.52L499.53 458.67L496.55 459.69L493.53 460.58L490.49 461.34L487.42 461.96L484.34 462.45L481.24 462.79L478.12 463L474.99 463.05L471.86 462.96L468.72 462.72L465.58 462.33L462.45 461.78L459.35 461.09L456.31 460.25L453.34 459.27L450.44 458.16L447.61 456.91L444.86 455.54L442.18 454.04L439.57 452.42L437.05 450.68L434.6 448.83L432.24 446.86L429.96 444.79L427.76 442.61L425.66 440.34L423.64 437.96L421.71 435.49L419.88 432.93L418.14 430.28L416.49 427.54L414.94 424.73L413.5 421.84L412.15 418.87L410.91 415.83L409.77 412.73L409.25 411.12L355.07 302.48L354.77 301.85L354.5 301.21L354.26 300.57L354.05 299.92L353.86 299.27L353.71 298.62L353.58 297.96L353.48 297.3L353.41 296.65L353.36 295.99L353.35 295.33L353.35 294.68L353.39 294.03L353.45 293.38L353.53 292.74L353.64 292.1L353.78 291.46L353.94 290.84L354.12 290.22L354.33 289.6L354.57 289L354.82 288.41L355.1 287.82L355.41 287.25L355.73 286.69L356.08 286.14L356.45 285.6L356.85 285.08L357.26 284.58L357.7 284.09L358.15 283.61L358.63 283.15L359.13 282.72L359.65 282.29L360.19 281.89L360.74 281.51L361.32 281.15L361.92 280.82L362.53 280.5L363.17 280.21L364.42 279.67L365.08 279.39L365.76 279.14L366.43 278.93L367.11 278.74L367.79 278.57L368.47 278.44L369.16 278.33L369.84 278.25L370.53 278.19L371.21 278.16L371.89 278.16L372.58 278.18L373.25 278.23L373.93 278.3L374.6 278.4L375.26 278.52L375.92 278.67L376.57 278.84L377.22 279.03L377.85 279.25L378.48 279.5L379.1 279.76L379.71 280.05L380.31 280.36L380.9 280.69L381.48 281.05L382.04 281.43L382.59 281.82L383.12 282.24L383.65 282.69L384.15 283.15L384.64 283.63L385.11 284.13L385.57 284.66L386 285.2L386.42 285.76L386.82 286.34L387.19 286.95L387.55 287.56L387.88 288.2L413.06 338.69L414.45 335.49L416.02 332.21L417.67 329.01L419.43 325.88L421.27 322.84L423.2 319.88L425.22 317.01L427.32 314.23L429.5 311.54L431.75 308.95L432.83 307.79L437.93 179.97L437.97 179.25L438.04 178.54L438.14 177.84L438.27 177.15L438.42 176.47L438.6 175.8L438.8 175.14L439.03 174.49L439.28 173.86L439.56 173.24L439.86 172.63L440.18 172.03L440.53 171.45L440.89 170.89L441.28 170.34L441.69 169.8L442.11 169.29L442.56 168.79L443.02 168.3L443.51 167.84L444.01 167.39L444.52 166.97L445.05 166.56L445.6 166.17L446.17 165.81L446.74 165.46L447.33 165.14L447.94 164.84L448.56 164.56L449.19 164.31L449.83 164.08L450.48 163.87L451.14 163.69L451.81 163.54L452.49 163.41L453.18 163.31L453.88 163.23L454.59 163.18L455.3 163.17L456.02 163.18L457.4 163.22L458.11 163.26L458.82 163.33L459.52 163.43L460.21 163.55L460.88 163.7L461.55 163.88L462.21 164.08L462.86 164.3L463.49 164.55L464.11 164.83L464.72 165.13L465.31 165.45L465.89 165.79L466.45 166.15L467 166.54L467.53 166.94L468.05 167.37L468.55 167.81L469.03 168.27L469.49 168.75L469.94 169.25L470.36 169.76L470.77 170.29L471.15 170.84L471.51 171.4L471.86 171.98L472.18 172.57L472.48 173.17L472.75 173.79L473 174.41L473.23 175.05L473.43 175.7L473.61 176.36L473.76 177.03L473.89 177.71L473.99 178.4L474.06 179.1L474.1 179.8L474.12 180.51L474.1 181.23L470.02 283.72L472.54 282.97L474.31 282.53L500.41 168.42L500.58 167.72L500.78 167.03L501.01 166.36L501.26 165.7L501.53 165.05L501.83 164.42L502.15 163.81L502.5 163.21L502.86 162.63L503.25 162.06L503.65 161.51L504.08 160.98L504.52 160.47L504.99 159.97L505.47 159.5L505.96 159.04L506.48 158.6L507.01 158.18L507.55 157.79L508.11 157.41L508.68 157.05L509.27 156.72L509.86 156.41L510.47 156.12L511.1 155.85L511.73 155.61L512.37 155.39L513.02 155.19L513.68 155.02L514.34 154.88L515.02 154.76L515.7 154.66L516.39 154.6L517.08 154.55L517.77 154.54L518.47 154.55L519.18 154.59Z" id="d2UCtI7NkF"></path><mask id="maskd4IkqYW9S" x="313.35" y="114.54" width="332.43" height="388.51" maskUnits="userSpaceOnUse"><rect x="313.35" y="114.54" width="332.43" height="388.51" fill="white"></rect><use xlink:href="#d2UCtI7NkF" opacity="1" fill="black"></use></mask></defs><g><g><g><use xlink:href="#a2EHBh20WE" opacity="1" fill="#2974b2" fill-opacity="1"></use><g><use xlink:href="#a2EHBh20WE" opacity="1" fill-opacity="0" stroke="#1d4e77" stroke-width="6" stroke-opacity="1"></use></g></g><g><use xlink:href="#eStdVLMQe" opacity="1" fill="#8fffdd" fill-opacity="1"></use><g mask="url(#maskc3kFotFd4)"><use xlink:href="#eStdVLMQe" opacity="1" fill-opacity="0" stroke="#78d1b6" stroke-width="40" stroke-opacity="1"></use></g></g><g><use xlink:href="#eWr052ycR" opacity="1" fill="#81df80" fill-opacity="1"></use><g><use xlink:href="#eWr052ycR" opacity="1" fill-opacity="0" stroke="#000000" stroke-width="1" stroke-opacity="1"></use></g></g><g><use xlink:href="#d2UCtI7NkF" opacity="1" fill="#8fffdd" fill-opacity="1"></use><g mask="url(#maskd4IkqYW9S)"><use xlink:href="#d2UCtI7NkF" opacity="1" fill-opacity="0" stroke="#78d1b6" stroke-width="40" stroke-opacity="1"></use></g></g></g></g></svg>