<?xml version="1.0" encoding="UTF-8" standalone="no"?>
<!DOCTYPE svg PUBLIC "-//W3C//DTD SVG 1.1//EN" "http://www.w3.org/Graphics/SVG/1.1/DTD/svg11.dtd">
<svg version="1.1" xmlns="http://www.w3.org/2000/svg" xmlns:xlink="http://www.w3.org/1999/xlink" preserveAspectRatio="xMidYMid meet" viewBox="0 0 640 640" width="640" height="640"><defs><path d="" id="a1fQEQWgE0"></path><path d="M147.12 149.45L147.8 149.52L148.48 149.61L149.16 149.73L149.83 149.88L150.48 150.05L151.14 150.24L151.78 150.46L152.41 150.7L153.03 150.96L153.64 151.25L154.24 151.56L154.83 151.89L155.4 152.25L155.96 152.62L156.5 153.02L157.03 153.44L157.55 153.87L158.05 154.33L158.53 154.81L158.99 155.3L159.44 155.81L159.86 156.34L160.27 156.89L160.66 157.45L161.02 158.04L161.37 158.63L161.69 159.25L161.99 159.88L162.27 160.52L162.52 161.18L162.75 161.85L162.95 162.54L163.13 163.24L189.51 277.3L191.29 277.74L193.81 278.47L189.46 175.99L189.45 175.28L189.46 174.57L189.5 173.86L189.57 173.17L189.67 172.48L189.79 171.8L189.94 171.13L190.12 170.47L190.32 169.82L190.55 169.18L190.8 168.55L191.07 167.93L191.37 167.33L191.69 166.74L192.03 166.16L192.39 165.6L192.77 165.05L193.18 164.52L193.6 164.01L194.05 163.51L194.51 163.03L194.99 162.57L195.48 162.12L196 161.69L196.53 161.29L197.08 160.9L197.64 160.54L198.22 160.19L198.81 159.87L199.42 159.57L200.04 159.3L200.67 159.05L201.31 158.82L201.97 158.62L202.64 158.44L203.32 158.29L204.01 158.16L204.7 158.07L205.41 158L206.13 157.95L207.5 157.9L208.22 157.89L208.94 157.91L209.64 157.95L210.34 158.03L211.03 158.13L211.71 158.25L212.38 158.41L213.05 158.59L213.7 158.79L214.34 159.02L214.97 159.27L215.59 159.55L216.19 159.85L216.79 160.17L217.36 160.51L217.93 160.88L218.48 161.26L219.01 161.67L219.53 162.09L220.03 162.54L220.51 163L220.98 163.48L221.42 163.98L221.85 164.5L222.26 165.03L222.65 165.58L223.01 166.15L223.36 166.73L223.69 167.32L223.99 167.93L224.27 168.55L224.52 169.18L224.75 169.83L224.96 170.49L225.14 171.16L225.29 171.84L225.42 172.53L225.52 173.23L225.59 173.94L225.64 174.66L231.05 302.46L232.13 303.62L234.39 306.21L236.58 308.89L238.68 311.67L240.71 314.54L242.65 317.49L244.5 320.53L246.26 323.65L247.93 326.85L249.5 330.13L250.9 333.32L275.95 282.79L276.28 282.15L276.64 281.53L277.01 280.92L277.41 280.34L277.82 279.78L278.26 279.23L278.71 278.71L279.18 278.2L279.67 277.72L280.17 277.26L280.69 276.81L281.23 276.39L281.78 275.99L282.34 275.61L282.91 275.26L283.5 274.92L284.1 274.61L284.71 274.32L285.33 274.06L285.96 273.81L286.59 273.59L287.24 273.39L287.89 273.22L288.55 273.07L289.21 272.95L289.88 272.85L290.56 272.78L291.23 272.73L291.91 272.7L292.6 272.7L293.28 272.73L293.97 272.79L294.65 272.87L295.34 272.97L296.02 273.11L296.7 273.27L297.38 273.46L298.06 273.68L298.73 273.92L299.39 274.19L300.65 274.73L301.28 275.02L301.9 275.34L302.5 275.67L303.07 276.03L303.63 276.41L304.17 276.81L304.69 277.23L305.19 277.67L305.67 278.13L306.13 278.6L306.57 279.09L306.98 279.59L307.38 280.11L307.75 280.65L308.1 281.2L308.42 281.76L308.73 282.33L309.01 282.91L309.27 283.51L309.5 284.11L309.71 284.72L309.9 285.34L310.06 285.97L310.2 286.6L310.31 287.24L310.4 287.89L310.46 288.53L310.5 289.19L310.51 289.84L310.49 290.5L310.45 291.15L310.37 291.81L310.28 292.47L310.15 293.12L310 293.78L309.82 294.43L309.61 295.08L309.37 295.72L309.1 296.36L308.8 296.99L254.89 405.75L254.37 407.36L253.24 410.46L252.01 413.5L250.67 416.47L249.23 419.37L247.69 422.19L246.05 424.92L244.32 427.58L242.49 430.14L240.57 432.62L238.56 435L236.46 437.28L234.27 439.46L231.99 441.54L229.63 443.51L227.19 445.37L224.67 447.11L222.07 448.74L219.39 450.24L216.64 451.62L213.82 452.87L210.92 453.99L207.96 454.97L204.92 455.82L201.82 456.52L198.69 457.08L195.55 457.48L192.41 457.72L189.28 457.82L186.15 457.77L183.04 457.58L179.93 457.24L176.85 456.76L173.78 456.14L170.73 455.39L167.72 454.51L164.73 453.49L161.77 452.35L158.84 451.08L155.96 449.69L153.12 448.17L150.32 446.54L147.56 444.79L144.86 442.93L142.21 440.96L139.62 438.88L137.09 436.69L134.62 434.39L132.22 432L129.89 429.51L127.63 426.92L125.44 424.23L123.34 421.45L121.31 418.59L119.37 415.63L117.52 412.6L115.76 409.48L114.09 406.28L112.52 403L111.05 399.64L109.69 396.22L108.43 392.72L107.28 389.16L106.24 385.53L105.32 381.83L104.63 378.61L104.62 378.59L104.38 378.05L104.15 377.49L58.9 259.37L58.71 258.82L58.53 258.27L58.38 257.71L58.26 257.15L58.16 256.59L58.08 256.04L58.03 255.48L58 254.92L57.99 254.37L58 253.81L58.04 253.26L58.1 252.72L58.18 252.17L58.28 251.64L58.4 251.1L58.54 250.58L58.7 250.06L58.89 249.55L59.09 249.04L59.31 248.55L59.55 248.06L59.82 247.58L60.09 247.12L60.39 246.66L60.71 246.22L61.04 245.78L61.39 245.36L61.76 244.96L62.15 244.57L62.55 244.19L62.97 243.83L63.4 243.48L63.85 243.15L64.31 242.84L64.79 242.54L65.29 242.27L65.8 242.01L66.32 241.77L66.86 241.55L67.41 241.36L68.5 240.99L69.07 240.81L69.65 240.66L70.22 240.53L70.8 240.42L71.38 240.33L71.96 240.27L72.53 240.23L73.11 240.22L73.68 240.22L74.25 240.25L74.82 240.3L75.38 240.37L75.94 240.46L76.5 240.57L77.05 240.7L77.59 240.85L78.13 241.03L78.65 241.22L79.17 241.43L79.69 241.66L80.19 241.91L80.69 242.18L81.17 242.46L81.64 242.77L82.11 243.09L82.56 243.43L82.99 243.79L83.42 244.16L83.83 244.55L84.23 244.96L84.61 245.38L84.98 245.82L85.33 246.28L85.67 246.75L85.99 247.23L86.29 247.74L86.57 248.25L86.84 248.78L87.08 249.32L87.31 249.88L112.22 314.91L112.79 313.76L114.33 310.94L115.97 308.2L117.38 306.05L81.24 190.64L81.04 189.96L80.88 189.28L80.74 188.6L80.63 187.92L80.55 187.24L80.5 186.56L80.47 185.89L80.48 185.21L80.51 184.54L80.57 183.88L80.65 183.22L80.76 182.57L80.89 181.92L81.06 181.28L81.24 180.65L81.45 180.03L81.68 179.41L81.94 178.81L82.22 178.22L82.52 177.64L82.85 177.07L83.2 176.51L83.57 175.97L83.96 175.44L84.37 174.93L84.8 174.43L85.25 173.95L85.72 173.49L86.21 173.04L86.72 172.62L87.25 172.21L87.8 171.82L88.36 171.46L88.94 171.11L89.54 170.79L90.16 170.49L90.79 170.22L91.44 169.97L92.1 169.74L92.78 169.54L94.1 169.18L94.8 169L95.5 168.85L96.2 168.74L96.9 168.65L97.6 168.58L98.3 168.55L98.99 168.54L99.68 168.56L100.37 168.61L101.05 168.68L101.72 168.77L102.39 168.9L103.06 169.04L103.71 169.22L104.36 169.41L105 169.63L105.63 169.88L106.25 170.15L106.86 170.44L107.46 170.75L108.04 171.08L108.62 171.44L109.18 171.82L109.72 172.21L110.25 172.63L110.77 173.07L111.27 173.53L111.75 174.01L112.21 174.51L112.66 175.03L113.09 175.56L113.5 176.12L113.89 176.69L114.25 177.27L114.6 177.88L114.92 178.5L115.23 179.14L115.5 179.79L115.76 180.46L115.99 181.15L147.16 280.72L148.2 280.26L151.1 279.14L152.77 278.58L127.74 170.38L127.6 169.68L127.48 168.99L127.39 168.3L127.34 167.61L127.31 166.92L127.31 166.24L127.33 165.56L127.39 164.88L127.47 164.22L127.58 163.55L127.71 162.9L127.87 162.25L128.05 161.61L128.26 160.98L128.49 160.36L128.75 159.75L129.02 159.16L129.33 158.57L129.65 158L130 157.43L130.36 156.89L130.75 156.35L131.16 155.84L131.59 155.34L132.04 154.85L132.51 154.38L133 153.93L133.5 153.5L134.03 153.09L134.57 152.7L135.13 152.33L135.7 151.98L136.29 151.65L136.9 151.34L137.52 151.06L138.16 150.81L138.81 150.57L139.48 150.36L140.16 150.18L140.85 150.03L142.2 149.76L142.91 149.63L143.62 149.53L144.32 149.46L145.03 149.42L145.73 149.4L146.42 149.41L147.12 149.45Z" id="b5OfcYF8yM"></path><path d="" id="h2rydjZYrS"></path><path d="M496.12 149.65L496.83 149.75L497.54 149.88L498.89 150.15L499.58 150.3L500.26 150.48L500.93 150.69L501.58 150.92L502.22 151.18L502.84 151.46L503.45 151.76L504.04 152.09L504.62 152.44L505.18 152.81L505.72 153.2L506.25 153.61L506.75 154.04L507.24 154.49L507.71 154.95L508.16 155.44L508.59 155.94L509 156.45L509.39 156.98L509.76 157.53L510.11 158.09L510.44 158.66L510.74 159.25L511.02 159.85L511.28 160.46L511.51 161.08L511.72 161.71L511.9 162.34L512.06 162.99L512.2 163.65L512.31 164.31L512.39 164.98L512.45 165.65L512.47 166.33L512.47 167.01L512.45 167.7L512.39 168.39L512.31 169.08L512.19 169.78L512.05 170.47L487.29 278.73L488.96 279.28L491.86 280.39L492.91 280.85L523.83 181.22L524.06 180.53L524.31 179.86L524.59 179.21L524.89 178.57L525.21 177.94L525.55 177.34L525.92 176.75L526.31 176.18L526.71 175.62L527.14 175.09L527.59 174.57L528.05 174.07L528.53 173.59L529.03 173.13L529.54 172.69L530.07 172.27L530.62 171.87L531.18 171.49L531.75 171.13L532.33 170.8L532.93 170.48L533.54 170.19L534.16 169.92L534.79 169.68L535.43 169.45L536.07 169.26L536.73 169.08L537.39 168.93L538.06 168.81L538.74 168.71L539.42 168.64L540.11 168.59L540.8 168.57L541.49 168.58L542.19 168.61L542.89 168.67L543.59 168.76L544.29 168.88L544.99 169.02L545.69 169.2L547.01 169.56L547.69 169.75L548.35 169.98L549 170.23L549.63 170.5L550.25 170.8L550.85 171.12L551.43 171.46L552 171.83L552.54 172.21L553.07 172.62L553.58 173.05L554.07 173.49L554.55 173.95L555 174.43L555.43 174.93L555.85 175.44L556.24 175.97L556.61 176.51L556.96 177.06L557.28 177.63L557.59 178.21L557.87 178.8L558.13 179.41L558.36 180.02L558.58 180.64L558.76 181.27L558.92 181.91L559.06 182.56L559.17 183.21L559.26 183.87L559.32 184.53L559.35 185.2L559.36 185.88L559.33 186.55L559.28 187.23L559.2 187.91L559.1 188.59L558.96 189.27L558.8 189.95L558.6 190.63L522.76 306.12L524.17 308.27L525.81 311L527.36 313.82L527.93 314.96L552.68 249.89L552.9 249.33L553.15 248.78L553.41 248.25L553.69 247.74L553.99 247.24L554.31 246.75L554.65 246.28L555 245.82L555.36 245.38L555.75 244.96L556.14 244.55L556.55 244.16L556.98 243.78L557.42 243.42L557.87 243.08L558.33 242.76L558.8 242.45L559.28 242.17L559.78 241.9L560.28 241.65L560.79 241.42L561.31 241.2L561.84 241.01L562.38 240.84L562.92 240.68L563.47 240.55L564.02 240.44L564.58 240.34L565.14 240.27L565.71 240.22L566.28 240.19L566.86 240.19L567.43 240.2L568.01 240.24L568.59 240.3L569.16 240.39L569.74 240.49L570.32 240.62L570.9 240.78L571.47 240.96L572.55 241.31L573.11 241.51L573.65 241.73L574.17 241.96L574.68 242.22L575.18 242.5L575.66 242.79L576.12 243.1L576.57 243.43L577.01 243.78L577.43 244.14L577.83 244.51L578.22 244.91L578.59 245.31L578.94 245.73L579.27 246.16L579.59 246.6L579.89 247.06L580.17 247.53L580.43 248L580.67 248.49L580.9 248.98L581.1 249.49L581.29 250L581.45 250.52L581.59 251.05L581.72 251.58L581.82 252.11L581.9 252.66L581.96 253.2L582 253.75L582.01 254.31L582.01 254.86L581.98 255.42L581.92 255.98L581.85 256.53L581.75 257.09L581.62 257.65L581.48 258.21L581.3 258.76L581.11 259.31L536.16 377.52L535.93 378.08L535.69 378.63L535.68 378.65L535 381.87L534.09 385.57L533.06 389.2L531.92 392.77L530.67 396.27L529.31 399.7L527.85 403.05L526.29 406.34L524.63 409.54L522.88 412.66L521.03 415.71L519.1 418.67L517.08 421.54L514.98 424.32L512.8 427.01L510.55 429.6L508.22 432.1L505.83 434.5L503.36 436.8L500.84 438.99L498.25 441.08L495.61 443.06L492.91 444.93L490.17 446.68L487.37 448.32L484.53 449.84L481.65 451.24L478.73 452.51L475.77 453.66L472.78 454.68L469.77 455.57L466.73 456.33L463.66 456.96L460.57 457.44L457.47 457.79L454.36 457.99L451.23 458.05L448.1 457.96L444.96 457.72L441.82 457.32L438.69 456.78L435.58 456.08L432.55 455.24L429.58 454.26L426.68 453.15L423.85 451.9L421.1 450.53L418.42 449.03L415.81 447.41L413.29 445.67L410.84 443.82L408.48 441.86L406.2 439.78L404 437.61L401.89 435.33L399.88 432.95L397.95 430.48L396.11 427.92L394.37 425.27L392.73 422.54L391.18 419.72L389.74 416.83L388.39 413.86L387.15 410.83L386.01 407.72L385.49 406.12L331.3 297.47L331.01 296.84L330.74 296.2L330.5 295.56L330.28 294.91L330.1 294.26L329.95 293.61L329.82 292.95L329.72 292.3L329.65 291.64L329.6 290.98L329.58 290.33L329.59 289.67L329.62 289.02L329.68 288.37L329.77 287.73L329.88 287.09L330.02 286.46L330.18 285.83L330.36 285.21L330.57 284.6L330.8 283.99L331.06 283.4L331.34 282.81L331.64 282.24L331.97 281.68L332.32 281.13L332.69 280.6L333.08 280.07L333.5 279.57L333.93 279.08L334.39 278.6L334.87 278.15L335.37 277.71L335.88 277.29L336.42 276.89L336.98 276.51L337.56 276.15L338.16 275.81L338.77 275.49L339.41 275.2L340.66 274.66L341.32 274.38L341.99 274.14L342.67 273.92L343.35 273.73L344.03 273.57L344.71 273.43L345.4 273.32L346.08 273.24L346.77 273.18L347.45 273.15L348.13 273.15L348.81 273.17L349.49 273.22L350.16 273.29L350.83 273.39L351.5 273.51L352.16 273.66L352.81 273.83L353.45 274.03L354.09 274.25L354.72 274.49L355.34 274.75L355.95 275.04L356.55 275.35L357.14 275.69L357.71 276.04L358.28 276.42L358.83 276.82L359.36 277.24L359.88 277.68L360.39 278.14L360.88 278.62L361.35 279.13L361.8 279.65L362.24 280.19L362.66 280.75L363.05 281.34L363.43 281.94L363.79 282.56L364.12 283.2L389.3 333.68L390.69 330.49L392.25 327.2L393.91 324L395.67 320.87L397.51 317.83L399.44 314.87L401.46 312L403.56 309.22L405.74 306.53L407.99 303.94L409.07 302.78L414.16 174.96L414.21 174.24L414.28 173.53L414.38 172.83L414.5 172.14L414.66 171.46L414.83 170.79L415.04 170.13L415.27 169.49L415.52 168.85L415.8 168.23L416.1 167.62L416.42 167.03L416.77 166.45L417.13 165.88L417.52 165.33L417.93 164.8L418.35 164.28L418.8 163.78L419.26 163.3L419.74 162.83L420.24 162.38L420.76 161.96L421.29 161.55L421.84 161.16L422.4 160.8L422.98 160.45L423.57 160.13L424.18 159.83L424.79 159.55L425.42 159.3L426.06 159.07L426.72 158.86L427.38 158.68L428.05 158.53L428.73 158.4L429.42 158.3L430.12 158.22L430.82 158.18L431.54 158.16L432.26 158.17L433.63 158.22L434.35 158.26L435.06 158.32L435.76 158.42L436.44 158.54L437.12 158.69L437.79 158.87L438.45 159.07L439.09 159.3L439.73 159.55L440.35 159.82L440.95 160.12L441.55 160.44L442.13 160.78L442.69 161.14L443.24 161.53L443.77 161.93L444.29 162.36L444.78 162.8L445.27 163.26L445.73 163.74L446.17 164.24L446.6 164.76L447 165.29L447.39 165.83L447.75 166.39L448.1 166.97L448.42 167.56L448.71 168.16L448.99 168.78L449.24 169.4L449.47 170.04L449.67 170.69L449.85 171.35L450 172.02L450.13 172.7L450.22 173.39L450.3 174.09L450.34 174.79L450.35 175.5L450.34 176.22L446.26 278.71L448.77 277.96L450.55 277.52L476.64 163.41L476.82 162.71L477.02 162.02L477.25 161.35L477.5 160.69L477.77 160.04L478.07 159.41L478.39 158.8L478.74 158.2L479.1 157.62L479.49 157.05L479.89 156.5L480.32 155.97L480.76 155.46L481.22 154.96L481.7 154.49L482.2 154.03L482.71 153.59L483.24 153.18L483.79 152.78L484.35 152.4L484.92 152.05L485.5 151.71L486.1 151.4L486.71 151.11L487.33 150.84L487.96 150.6L488.61 150.38L489.26 150.19L489.91 150.02L490.58 149.87L491.26 149.75L491.94 149.66L492.62 149.59L493.31 149.55L494.01 149.53L494.71 149.54L495.42 149.59L495.42 149.59L496.12 149.65Z" id="aRUDKAPpZ"></path></defs><g><g><g><use xlink:href="#a1fQEQWgE0" opacity="1" fill="#2974b2" fill-opacity="1"></use><g><use xlink:href="#a1fQEQWgE0" opacity="1" fill-opacity="0" stroke="#1d4e77" stroke-width="6" stroke-opacity="1"></use></g></g><g><use xlink:href="#b5OfcYF8yM" opacity="1" fill="#2974b2" fill-opacity="1"></use><g><use xlink:href="#b5OfcYF8yM" opacity="1" fill-opacity="0" stroke="#28689e" stroke-width="6" stroke-opacity="1"></use></g></g><g><use xlink:href="#h2rydjZYrS" opacity="1" fill="#81df80" fill-opacity="1"></use><g><use xlink:href="#h2rydjZYrS" opacity="1" fill-opacity="0" stroke="#000000" stroke-width="1" stroke-opacity="1"></use></g></g><g><use xlink:href="#aRUDKAPpZ" opacity="1" fill="#ffcc00" fill-opacity="1"></use><g><use xlink:href="#aRUDKAPpZ" opacity="1" fill-opacity="0" stroke="#cca400" stroke-width="6" stroke-opacity="1"></use></g></g></g></g></svg>