<?xml version="1.0" encoding="UTF-8" standalone="no"?>
<!DOCTYPE svg PUBLIC "-//W3C//DTD SVG 1.1//EN" "http://www.w3.org/Graphics/SVG/1.1/DTD/svg11.dtd">
<svg version="1.1" xmlns="http://www.w3.org/2000/svg" xmlns:xlink="http://www.w3.org/1999/xlink" preserveAspectRatio="xMidYMid meet" viewBox="0 0 640 640" width="640" height="640"><defs><path d="M371.2 526.44L371.33 526.45L371.46 526.47L371.58 526.49L371.71 526.52L371.83 526.55L371.95 526.59L372.06 526.63L372.18 526.68L372.29 526.73L372.4 526.78L372.51 526.84L372.62 526.91L372.72 526.97L372.82 527.04L372.92 527.12L373.01 527.19L373.1 527.27L373.19 527.36L373.27 527.45L373.35 527.54L373.43 527.63L373.51 527.73L373.58 527.83L373.64 527.93L373.7 528.04L373.76 528.14L373.82 528.26L373.87 528.37L373.91 528.48L373.96 528.6L373.99 528.72L374.03 528.84L374.05 528.96L374.08 529.09L374.09 529.21L374.11 529.34L374.12 529.47L374.12 529.6L374.12 543.99L374.12 544.12L374.11 544.25L374.09 544.38L374.08 544.51L374.05 544.63L374.03 544.75L373.99 544.88L373.96 545L373.91 545.11L373.87 545.23L373.82 545.34L373.76 545.45L373.7 545.56L373.64 545.66L373.58 545.77L373.51 545.87L373.43 545.96L373.35 546.06L373.27 546.15L373.19 546.24L373.1 546.32L373.01 546.4L372.92 546.48L372.82 546.55L372.72 546.62L372.62 546.69L372.51 546.75L372.4 546.81L372.29 546.87L372.18 546.92L372.06 546.96L371.95 547L371.83 547.04L371.71 547.07L371.58 547.1L371.46 547.12L371.33 547.14L371.2 547.15L371.08 547.16L370.94 547.17L350.77 547.17L350.72 548L350.56 548.83L350.31 549.64L349.97 550.44L349.53 551.21L349 551.98L348.38 552.72L347.69 553.44L346.9 554.14L346.05 554.81L345.11 555.46L344.11 556.09L343.03 556.69L341.89 557.25L340.68 557.79L339.41 558.3L338.08 558.77L336.7 559.21L335.26 559.62L333.78 559.98L332.25 560.31L330.67 560.6L329.06 560.85L327.4 561.06L325.71 561.22L323.99 561.34L322.23 561.41L320.45 561.44L318.67 561.41L316.92 561.34L315.2 561.22L313.51 561.06L311.85 560.85L310.23 560.6L308.66 560.31L307.13 559.98L305.64 559.62L304.21 559.21L302.82 558.77L301.5 558.3L300.23 557.79L299.02 557.25L297.88 556.69L296.8 556.09L295.79 555.46L294.86 554.81L294 554.14L293.22 553.44L292.52 552.72L291.91 551.98L291.38 551.21L290.94 550.44L290.59 549.64L290.34 548.83L290.19 548L290.14 547.17L269.96 547.17L269.83 547.16L269.7 547.15L269.57 547.14L269.45 547.12L269.32 547.1L269.2 547.07L269.08 547.04L268.96 547L268.84 546.96L268.73 546.92L268.61 546.87L268.5 546.81L268.39 546.75L268.29 546.69L268.19 546.62L268.09 546.55L267.99 546.48L267.9 546.4L267.81 546.32L267.72 546.24L267.63 546.15L267.55 546.06L267.47 545.96L267.4 545.87L267.33 545.77L267.26 545.66L267.2 545.56L267.14 545.45L267.09 545.34L267.04 545.23L266.99 545.11L266.95 545L266.91 544.88L266.88 544.75L266.85 544.63L266.83 544.51L266.81 544.38L266.8 544.25L266.79 544.12L266.79 543.99L266.79 529.6L266.79 529.47L266.8 529.34L266.81 529.21L266.83 529.09L266.85 528.96L266.88 528.84L266.91 528.72L266.95 528.6L266.99 528.48L267.04 528.37L267.09 528.26L267.14 528.14L267.2 528.04L267.26 527.93L267.33 527.83L267.4 527.73L267.47 527.63L267.55 527.54L267.63 527.45L267.72 527.36L267.81 527.27L267.9 527.19L267.99 527.12L268.09 527.04L268.19 526.97L268.29 526.91L268.39 526.84L268.5 526.78L268.61 526.73L268.73 526.68L268.84 526.63L268.96 526.59L269.08 526.55L269.2 526.52L269.32 526.49L269.45 526.47L269.57 526.45L269.7 526.44L269.83 526.43L269.96 526.43L370.94 526.43L371.08 526.43L371.2 526.44ZM371.2 499.71L371.33 499.73L371.46 499.74L371.58 499.77L371.71 499.79L371.83 499.83L371.95 499.86L372.06 499.91L372.18 499.95L372.29 500L372.4 500.06L372.51 500.12L372.62 500.18L372.72 500.24L372.82 500.31L372.92 500.39L373.01 500.47L373.1 500.55L373.19 500.63L373.27 500.72L373.35 500.81L373.43 500.9L373.51 501L373.58 501.1L373.64 501.2L373.7 501.31L373.76 501.42L373.82 501.53L373.87 501.64L373.91 501.76L373.96 501.87L373.99 501.99L374.03 502.11L374.05 502.24L374.08 502.36L374.09 502.49L374.11 502.62L374.12 502.74L374.12 502.88L374.12 517.26L374.12 517.4L374.11 517.52L374.09 517.65L374.08 517.78L374.05 517.9L374.03 518.03L373.99 518.15L373.96 518.27L373.91 518.38L373.87 518.5L373.82 518.61L373.76 518.72L373.7 518.83L373.64 518.94L373.58 519.04L373.51 519.14L373.43 519.24L373.35 519.33L373.27 519.42L373.19 519.51L373.1 519.59L373.01 519.67L372.92 519.75L372.82 519.83L372.72 519.9L372.62 519.96L372.51 520.03L372.4 520.08L372.29 520.14L372.18 520.19L372.06 520.23L371.95 520.28L371.83 520.31L371.71 520.35L371.58 520.37L371.46 520.4L371.33 520.41L371.2 520.43L371.08 520.44L370.94 520.44L269.96 520.44L269.83 520.44L269.7 520.43L269.57 520.41L269.45 520.4L269.32 520.37L269.2 520.35L269.08 520.31L268.96 520.28L268.84 520.23L268.73 520.19L268.61 520.14L268.5 520.08L268.39 520.03L268.29 519.96L268.19 519.9L268.09 519.83L267.99 519.75L267.9 519.67L267.81 519.59L267.72 519.51L267.63 519.42L267.55 519.33L267.47 519.24L267.4 519.14L267.33 519.04L267.26 518.94L267.2 518.83L267.14 518.72L267.09 518.61L267.04 518.5L266.99 518.38L266.95 518.27L266.91 518.15L266.88 518.03L266.85 517.9L266.83 517.78L266.81 517.65L266.8 517.52L266.79 517.4L266.79 517.26L266.79 502.88L266.79 502.74L266.8 502.62L266.81 502.49L266.83 502.36L266.85 502.24L266.88 502.11L266.91 501.99L266.95 501.87L266.99 501.76L267.04 501.64L267.09 501.53L267.14 501.42L267.2 501.31L267.26 501.2L267.33 501.1L267.4 501L267.47 500.9L267.55 500.81L267.63 500.72L267.72 500.63L267.81 500.55L267.9 500.47L267.99 500.39L268.09 500.31L268.19 500.24L268.29 500.18L268.39 500.12L268.5 500.06L268.61 500L268.73 499.95L268.84 499.91L268.96 499.86L269.08 499.83L269.2 499.79L269.32 499.77L269.45 499.74L269.57 499.73L269.7 499.71L269.83 499.7L269.96 499.7L370.94 499.7L371.08 499.7L371.2 499.71ZM371.2 472.99L371.33 473L371.46 473.02L371.58 473.04L371.71 473.07L371.83 473.1L371.95 473.14L372.06 473.18L372.18 473.22L372.29 473.27L372.4 473.33L372.51 473.39L372.62 473.45L372.72 473.52L372.82 473.59L372.92 473.66L373.01 473.74L373.1 473.82L373.19 473.9L373.27 473.99L373.35 474.08L373.43 474.18L373.51 474.27L373.58 474.37L373.64 474.48L373.7 474.58L373.76 474.69L373.82 474.8L373.87 474.91L373.91 475.03L373.96 475.14L373.99 475.26L374.03 475.39L374.05 475.51L374.08 475.63L374.09 475.76L374.11 475.89L374.12 476.02L374.12 476.15L374.12 490.54L374.12 490.67L374.11 490.8L374.09 490.93L374.08 491.05L374.05 491.18L374.03 491.3L373.99 491.42L373.96 491.54L373.91 491.66L373.87 491.77L373.82 491.89L373.76 492L373.7 492.1L373.64 492.21L373.58 492.31L373.51 492.41L373.43 492.51L373.35 492.6L373.27 492.69L373.19 492.78L373.1 492.87L373.01 492.95L372.92 493.02L372.82 493.1L372.72 493.17L372.62 493.23L372.51 493.3L372.4 493.36L372.29 493.41L372.18 493.46L372.06 493.51L371.95 493.55L371.83 493.59L371.71 493.62L371.58 493.65L371.46 493.67L371.33 493.69L371.2 493.7L371.08 493.71L370.94 493.71L269.96 493.71L269.83 493.71L269.7 493.7L269.57 493.69L269.45 493.67L269.32 493.65L269.2 493.62L269.08 493.59L268.96 493.55L268.84 493.51L268.73 493.46L268.61 493.41L268.5 493.36L268.39 493.3L268.29 493.23L268.19 493.17L268.09 493.1L267.99 493.02L267.9 492.95L267.81 492.87L267.72 492.78L267.63 492.69L267.55 492.6L267.47 492.51L267.4 492.41L267.33 492.31L267.26 492.21L267.2 492.1L267.14 492L267.09 491.89L267.04 491.77L266.99 491.66L266.95 491.54L266.91 491.42L266.88 491.3L266.85 491.18L266.83 491.05L266.81 490.93L266.8 490.8L266.79 490.67L266.79 490.54L266.79 476.15L266.79 476.02L266.8 475.89L266.81 475.76L266.83 475.63L266.85 475.51L266.88 475.39L266.91 475.26L266.95 475.14L266.99 475.03L267.04 474.91L267.09 474.8L267.14 474.69L267.2 474.58L267.26 474.48L267.33 474.37L267.4 474.27L267.47 474.18L267.55 474.08L267.63 473.99L267.72 473.9L267.81 473.82L267.9 473.74L267.99 473.66L268.09 473.59L268.19 473.52L268.29 473.45L268.39 473.39L268.5 473.33L268.61 473.27L268.73 473.22L268.84 473.18L268.96 473.14L269.08 473.1L269.2 473.07L269.32 473.04L269.45 473.02L269.57 473L269.7 472.99L269.83 472.98L269.96 472.97L370.94 472.97L371.08 472.98L371.2 472.99ZM331.09 169.98L336.33 170.49L341.5 171.19L346.6 172.08L351.64 173.16L356.59 174.42L361.47 175.85L366.26 177.47L370.97 179.25L375.58 181.21L380.1 183.32L384.51 185.59L388.82 188.02L393.02 190.6L397.11 193.33L401.08 196.2L404.93 199.21L408.65 202.36L412.24 205.63L415.7 209.04L419.02 212.57L422.19 216.21L425.22 219.98L428.1 223.85L430.82 227.83L433.38 231.92L435.78 236.1L438.01 240.38L440.07 244.75L441.96 249.21L443.66 253.75L445.18 258.37L446.51 263.07L447.64 267.84L448.58 272.68L449.32 277.58L449.85 282.54L450.18 287.56L450.28 292.63L450.18 297.7L449.85 302.72L449.32 307.68L448.58 312.58L447.64 317.42L446.51 322.19L445.18 326.88L443.66 331.51L441.96 336.05L440.07 340.51L438.01 344.88L435.78 349.16L433.38 353.34L430.82 357.43L428.1 361.41L425.22 365.28L422.19 369.05L419.02 372.69L416.57 375.3L398.41 399.5L384.97 426.26L378.48 447.95L378.48 452.6L378.47 453.15L378.43 453.69L378.38 454.23L378.3 454.77L378.21 455.29L378.09 455.81L377.95 456.32L377.8 456.82L377.62 457.32L377.43 457.8L377.22 458.27L376.99 458.74L376.74 459.19L376.48 459.64L376.2 460.07L375.9 460.49L375.59 460.9L375.26 461.29L374.92 461.68L374.56 462.05L374.19 462.4L373.81 462.74L373.42 463.07L373.01 463.38L372.59 463.68L372.15 463.96L371.71 464.22L371.26 464.47L370.79 464.7L370.32 464.91L369.83 465.1L369.34 465.28L368.84 465.44L368.33 465.57L367.81 465.69L367.28 465.79L366.75 465.86L366.21 465.92L365.67 465.95L365.11 465.96L275.79 465.96L275.24 465.95L274.7 465.92L274.16 465.86L273.62 465.79L273.1 465.69L272.58 465.57L272.07 465.44L271.57 465.28L271.07 465.1L270.59 464.91L270.11 464.7L269.65 464.47L269.2 464.22L268.75 463.96L268.32 463.68L267.9 463.38L267.49 463.07L267.09 462.74L266.71 462.4L266.34 462.05L265.99 461.68L265.64 461.29L265.32 460.9L265.01 460.49L264.71 460.07L264.43 459.64L264.17 459.19L263.92 458.74L263.69 458.27L263.48 457.8L263.28 457.32L263.11 456.82L262.95 456.32L262.82 455.81L262.7 455.29L262.6 454.77L262.53 454.23L262.47 453.69L262.44 453.15L262.43 452.6L262.43 450.75L253.86 422.13L244.2 402.89L219.43 369.86L218.71 369.05L215.69 365.28L212.81 361.41L210.08 357.43L207.52 353.34L205.12 349.16L202.89 344.88L200.83 340.51L198.95 336.05L197.25 331.51L195.73 326.88L194.4 322.19L193.26 317.42L192.32 312.58L191.58 307.68L191.05 302.72L190.73 297.7L190.62 292.63L190.73 287.56L191.05 282.54L191.58 277.58L192.32 272.68L193.26 267.84L194.4 263.07L195.73 258.37L197.25 253.75L198.95 249.21L200.83 244.75L202.89 240.38L205.12 236.1L207.52 231.92L210.08 227.83L212.81 223.85L215.69 219.98L218.71 216.21L221.89 212.57L225.21 209.04L228.67 205.63L232.26 202.36L235.98 199.21L239.83 196.2L243.8 193.33L247.88 190.6L252.08 188.02L256.39 185.59L260.81 183.32L265.32 181.21L269.94 179.25L274.64 177.47L279.43 175.85L284.31 174.42L289.27 173.16L294.3 172.08L299.41 171.19L304.58 170.49L309.81 169.98L315.1 169.68L320.45 169.58L325.8 169.68L331.09 169.98Z" id="bkuMOvS9J"></path><mask id="maskb1qQxXIgX1" x="150.62" y="129.58" width="339.66" height="471.86" maskUnits="userSpaceOnUse"><rect x="150.62" y="129.58" width="339.66" height="471.86" fill="white"></rect><use xlink:href="#bkuMOvS9J" opacity="1" fill="black"></use></mask><path d="M422.91 293.78C422.91 350.85 376.8 397.18 320 397.18C263.2 397.18 217.09 350.85 217.09 293.78C217.09 236.71 263.2 190.37 320 190.37C376.8 190.37 422.91 236.71 422.91 293.78Z" id="aDHSWpbgw"></path></defs><g><g><g><use xlink:href="#bkuMOvS9J" opacity="1" fill="#fff18f" fill-opacity="1"></use><g mask="url(#maskb1qQxXIgX1)"><use xlink:href="#bkuMOvS9J" opacity="1" fill-opacity="0" stroke="#e9d01e" stroke-width="40" stroke-opacity="1"></use></g></g><g><use xlink:href="#aDHSWpbgw" opacity="1" fill="#fff5b0" fill-opacity="1"></use></g></g></g></svg>