<?xml version="1.0" encoding="UTF-8" standalone="no"?>
<!DOCTYPE svg PUBLIC "-//W3C//DTD SVG 1.1//EN" "http://www.w3.org/Graphics/SVG/1.1/DTD/svg11.dtd">
<svg version="1.1" xmlns="http://www.w3.org/2000/svg" xmlns:xlink="http://www.w3.org/1999/xlink" preserveAspectRatio="xMidYMid meet" viewBox="0 0 640 640" width="640" height="640"><defs><path d="M387.13 541.33L387.3 541.35L387.46 541.38L387.63 541.41L387.79 541.44L387.96 541.49L388.11 541.54L388.27 541.59L388.42 541.65L388.57 541.72L388.72 541.79L388.86 541.87L389.01 541.95L389.14 542.04L389.27 542.14L389.4 542.23L389.53 542.34L389.65 542.45L389.77 542.56L389.88 542.68L389.99 542.8L390.09 542.92L390.19 543.05L390.28 543.18L390.37 543.32L390.46 543.46L390.53 543.6L390.61 543.75L390.67 543.9L390.73 544.06L390.79 544.21L390.84 544.37L390.88 544.53L390.92 544.7L390.95 544.86L390.97 545.03L390.99 545.2L391 545.37L391.01 545.55L391.01 564.71L391 564.89L390.99 565.06L390.97 565.23L390.95 565.4L390.92 565.56L390.88 565.73L390.84 565.89L390.79 566.05L390.73 566.2L390.67 566.36L390.61 566.51L390.53 566.65L390.46 566.8L390.37 566.94L390.28 567.07L390.19 567.21L390.09 567.34L389.99 567.46L389.88 567.58L389.77 567.7L389.65 567.81L389.53 567.92L389.4 568.02L389.27 568.12L389.14 568.22L389.01 568.3L388.86 568.39L388.72 568.47L388.57 568.54L388.42 568.6L388.27 568.67L388.11 568.72L387.96 568.77L387.79 568.81L387.63 568.85L387.46 568.88L387.3 568.91L387.13 568.92L386.95 568.93L386.78 568.94L359.19 568.94L359.16 569.74L359.05 570.53L358.87 571.32L358.62 572.09L358.31 572.86L357.93 573.61L357.49 574.36L356.98 575.09L356.41 575.8L355.78 576.51L355.1 577.19L354.35 577.87L353.55 578.53L352.7 579.17L351.79 579.79L350.83 580.4L349.82 580.99L348.76 581.56L347.66 582.11L346.51 582.63L345.32 583.14L344.08 583.63L342.8 584.09L341.48 584.53L340.12 584.95L338.73 585.35L337.3 585.71L335.84 586.06L334.34 586.37L332.81 586.66L331.25 586.92L329.67 587.16L328.05 587.36L326.42 587.54L324.75 587.68L323.07 587.79L321.36 587.88L319.63 587.92L317.89 587.94L316.14 587.92L314.42 587.88L312.71 587.79L311.03 587.68L309.36 587.54L307.72 587.36L306.11 587.16L304.53 586.92L302.97 586.66L301.44 586.37L299.94 586.06L298.48 585.71L297.05 585.35L295.66 584.95L294.3 584.53L292.98 584.09L291.7 583.63L290.46 583.14L289.27 582.63L288.12 582.11L287.02 581.56L285.96 580.99L284.95 580.4L283.99 579.79L283.08 579.17L282.23 578.53L281.43 577.87L280.68 577.19L280 576.51L279.37 575.8L278.8 575.09L278.29 574.36L277.85 573.61L277.47 572.86L277.15 572.09L276.91 571.32L276.73 570.53L276.62 569.74L276.59 568.94L249 568.94L248.83 568.93L248.65 568.92L248.48 568.91L248.32 568.88L248.15 568.85L247.99 568.81L247.82 568.77L247.66 568.72L247.51 568.67L247.36 568.6L247.21 568.54L247.06 568.47L246.91 568.39L246.77 568.3L246.64 568.22L246.5 568.12L246.38 568.02L246.25 567.92L246.13 567.81L246.01 567.7L245.9 567.58L245.79 567.46L245.69 567.34L245.59 567.21L245.5 567.07L245.41 566.94L245.32 566.8L245.25 566.65L245.17 566.51L245.11 566.36L245.05 566.2L244.99 566.05L244.94 565.89L244.9 565.73L244.86 565.56L244.83 565.4L244.81 565.23L244.79 565.06L244.78 564.89L244.77 564.71L244.77 545.55L244.78 545.37L244.79 545.2L244.81 545.03L244.83 544.86L244.86 544.7L244.9 544.53L244.94 544.37L244.99 544.21L245.05 544.06L245.11 543.9L245.17 543.75L245.25 543.6L245.32 543.46L245.41 543.32L245.5 543.18L245.59 543.05L245.69 542.92L245.79 542.8L245.9 542.68L246.01 542.56L246.13 542.45L246.25 542.34L246.38 542.23L246.5 542.14L246.64 542.04L246.77 541.95L246.91 541.87L247.06 541.79L247.21 541.72L247.36 541.65L247.51 541.59L247.66 541.54L247.82 541.49L247.99 541.44L248.15 541.41L248.32 541.38L248.48 541.35L248.65 541.33L248.83 541.32L249 541.32L386.78 541.32L386.95 541.32L387.13 541.33ZM387.13 505.74L387.3 505.76L387.46 505.78L387.63 505.81L387.79 505.85L387.96 505.89L388.11 505.94L388.27 506L388.42 506.06L388.57 506.12L388.72 506.2L388.86 506.27L389.01 506.36L389.14 506.45L389.27 506.54L389.4 506.64L389.53 506.74L389.65 506.85L389.77 506.96L389.88 507.08L389.99 507.2L390.09 507.33L390.19 507.46L390.28 507.59L390.37 507.72L390.46 507.87L390.53 508.01L390.61 508.16L390.67 508.31L390.73 508.46L390.79 508.62L390.84 508.77L390.88 508.94L390.92 509.1L390.95 509.27L390.97 509.43L390.99 509.6L391 509.78L391.01 509.95L391.01 529.11L391 529.29L390.99 529.46L390.97 529.63L390.95 529.8L390.92 529.97L390.88 530.13L390.84 530.29L390.79 530.45L390.73 530.61L390.67 530.76L390.61 530.91L390.53 531.06L390.46 531.2L390.37 531.34L390.28 531.48L390.19 531.61L390.09 531.74L389.99 531.86L389.88 531.99L389.77 532.1L389.65 532.22L389.53 532.32L389.4 532.43L389.27 532.53L389.14 532.62L389.01 532.71L388.86 532.79L388.72 532.87L388.57 532.94L388.42 533.01L388.27 533.07L388.11 533.13L387.96 533.17L387.79 533.22L387.63 533.25L387.46 533.29L387.3 533.31L387.13 533.33L386.95 533.34L386.78 533.34L249 533.34L248.83 533.34L248.65 533.33L248.48 533.31L248.32 533.29L248.15 533.25L247.99 533.22L247.82 533.17L247.66 533.13L247.51 533.07L247.36 533.01L247.21 532.94L247.06 532.87L246.91 532.79L246.77 532.71L246.64 532.62L246.5 532.53L246.38 532.43L246.25 532.32L246.13 532.22L246.01 532.1L245.9 531.99L245.79 531.86L245.69 531.74L245.59 531.61L245.5 531.48L245.41 531.34L245.32 531.2L245.25 531.06L245.17 530.91L245.11 530.76L245.05 530.61L244.99 530.45L244.94 530.29L244.9 530.13L244.86 529.97L244.83 529.8L244.81 529.63L244.79 529.46L244.78 529.29L244.77 529.11L244.77 509.95L244.78 509.78L244.79 509.6L244.81 509.43L244.83 509.27L244.86 509.1L244.9 508.94L244.94 508.77L244.99 508.62L245.05 508.46L245.11 508.31L245.17 508.16L245.25 508.01L245.32 507.87L245.41 507.72L245.5 507.59L245.59 507.46L245.69 507.33L245.79 507.2L245.9 507.08L246.01 506.96L246.13 506.85L246.25 506.74L246.38 506.64L246.5 506.54L246.64 506.45L246.77 506.36L246.91 506.27L247.06 506.2L247.21 506.12L247.36 506.06L247.51 506L247.66 505.94L247.82 505.89L247.99 505.85L248.15 505.81L248.32 505.78L248.48 505.76L248.65 505.74L248.83 505.73L249 505.72L386.78 505.72L386.95 505.73L387.13 505.74ZM387.13 470.14L387.3 470.16L387.46 470.18L387.63 470.21L387.79 470.25L387.96 470.29L388.11 470.34L388.27 470.4L388.42 470.46L388.57 470.53L388.72 470.6L388.86 470.68L389.01 470.76L389.14 470.85L389.27 470.94L389.4 471.04L389.53 471.15L389.65 471.25L389.77 471.37L389.88 471.48L389.99 471.6L390.09 471.73L390.19 471.86L390.28 471.99L390.37 472.13L390.46 472.27L390.53 472.41L390.61 472.56L390.67 472.71L390.73 472.86L390.79 473.02L390.84 473.18L390.88 473.34L390.92 473.5L390.95 473.67L390.97 473.84L390.99 474.01L391 474.18L391.01 474.35L391.01 493.52L391 493.69L390.99 493.87L390.97 494.04L390.95 494.2L390.92 494.37L390.88 494.53L390.84 494.7L390.79 494.85L390.73 495.01L390.67 495.16L390.61 495.31L390.53 495.46L390.46 495.6L390.37 495.74L390.28 495.88L390.19 496.01L390.09 496.14L389.99 496.27L389.88 496.39L389.77 496.51L389.65 496.62L389.53 496.73L389.4 496.83L389.27 496.93L389.14 497.02L389.01 497.11L388.86 497.19L388.72 497.27L388.57 497.35L388.42 497.41L388.27 497.47L388.11 497.53L387.96 497.58L387.79 497.62L387.63 497.66L387.46 497.69L387.3 497.71L387.13 497.73L386.95 497.74L386.78 497.74L249 497.74L248.83 497.74L248.65 497.73L248.48 497.71L248.32 497.69L248.15 497.66L247.99 497.62L247.82 497.58L247.66 497.53L247.51 497.47L247.36 497.41L247.21 497.35L247.06 497.27L246.91 497.19L246.77 497.11L246.64 497.02L246.5 496.93L246.38 496.83L246.25 496.73L246.13 496.62L246.01 496.51L245.9 496.39L245.79 496.27L245.69 496.14L245.59 496.01L245.5 495.88L245.41 495.74L245.32 495.6L245.25 495.46L245.17 495.31L245.11 495.16L245.05 495.01L244.99 494.85L244.94 494.7L244.9 494.53L244.86 494.37L244.83 494.2L244.81 494.04L244.79 493.87L244.78 493.69L244.77 493.52L244.77 474.35L244.78 474.18L244.79 474.01L244.81 473.84L244.83 473.67L244.86 473.5L244.9 473.34L244.94 473.18L244.99 473.02L245.05 472.86L245.11 472.71L245.17 472.56L245.25 472.41L245.32 472.27L245.41 472.13L245.5 471.99L245.59 471.86L245.69 471.73L245.79 471.6L245.9 471.48L246.01 471.37L246.13 471.25L246.25 471.15L246.38 471.04L246.5 470.94L246.64 470.85L246.77 470.76L246.91 470.68L247.06 470.6L247.21 470.53L247.36 470.46L247.51 470.4L247.66 470.34L247.82 470.29L247.99 470.25L248.15 470.21L248.32 470.18L248.48 470.16L248.65 470.14L248.83 470.13L249 470.13L386.78 470.13L386.95 470.13L387.13 470.14ZM332.39 66.6L339.52 67.27L346.57 68.21L353.52 69.39L360.38 70.82L367.13 72.5L373.77 74.42L380.3 76.57L386.71 78.95L393 81.55L399.15 84.36L405.17 87.39L411.04 90.63L416.76 94.06L422.33 97.7L427.74 101.52L432.98 105.53L438.05 109.72L442.94 114.08L447.65 118.62L452.18 123.31L456.5 128.17L460.63 133.18L464.55 138.34L468.26 143.64L471.75 149.08L475.02 154.65L478.06 160.35L480.87 166.18L483.43 172.12L485.75 178.17L487.82 184.32L489.63 190.58L491.18 196.93L492.46 203.37L493.47 209.9L494.19 216.51L494.63 223.19L494.78 229.94L494.63 236.69L494.19 243.37L493.47 249.98L492.46 256.51L491.18 262.95L489.63 269.31L487.82 275.56L485.75 281.72L483.43 287.77L480.87 293.71L478.06 299.53L475.02 305.23L471.75 310.8L468.26 316.24L464.55 321.54L460.63 326.7L456.5 331.71L452.18 336.57L448.84 340.04L424.1 372.28L405.79 407.91L396.95 436.8L396.95 442.99L396.93 443.72L396.89 444.45L396.81 445.17L396.71 445.88L396.58 446.58L396.43 447.27L396.25 447.95L396.04 448.62L395.81 449.27L395.55 449.92L395.26 450.55L394.96 451.17L394.63 451.77L394.28 452.37L393.91 452.94L393.51 453.5L393.1 454.05L392.66 454.57L392.21 455.08L391.73 455.58L391.24 456.05L390.73 456.5L390.2 456.94L389.66 457.35L389.1 457.75L388.52 458.12L387.93 458.47L387.33 458.8L386.71 459.11L386.08 459.39L385.43 459.65L384.77 459.88L384.1 460.09L383.42 460.27L382.73 460.43L382.03 460.56L381.33 460.66L380.61 460.73L379.88 460.77L379.15 460.79L256.63 460.79L255.9 460.77L255.17 460.73L254.45 460.66L253.75 460.56L253.05 460.43L252.36 460.27L251.68 460.09L251.01 459.88L250.35 459.65L249.7 459.39L249.07 459.11L248.45 458.8L247.85 458.47L247.26 458.12L246.68 457.75L246.12 457.35L245.58 456.94L245.05 456.5L244.54 456.05L244.05 455.58L243.57 455.08L243.12 454.57L242.68 454.05L242.27 453.5L241.87 452.94L241.5 452.37L241.15 451.77L240.82 451.17L240.51 450.55L240.23 449.92L239.97 449.27L239.74 448.62L239.53 447.95L239.35 447.27L239.2 446.58L239.07 445.88L238.97 445.17L238.89 444.45L238.85 443.72L238.83 442.99L238.83 440.53L227.16 402.41L213.99 376.79L180.25 332.8L179.28 331.71L175.15 326.7L171.23 321.54L167.52 316.24L164.03 310.8L160.76 305.23L157.72 299.53L154.91 293.71L152.35 287.77L150.03 281.72L147.96 275.56L146.15 269.31L144.6 262.95L143.32 256.51L142.31 249.98L141.59 243.37L141.15 236.69L141 229.94L141.15 223.19L141.59 216.51L142.31 209.9L143.32 203.37L144.6 196.93L146.15 190.58L147.96 184.32L150.03 178.17L152.35 172.12L154.91 166.18L157.72 160.35L160.76 154.65L164.03 149.08L167.52 143.64L171.23 138.34L175.15 133.18L179.28 128.17L183.6 123.31L188.13 118.62L192.84 114.08L197.73 109.72L202.8 105.53L208.04 101.52L213.45 97.7L219.02 94.06L224.74 90.63L230.61 87.39L236.63 84.36L242.78 81.55L249.06 78.95L255.47 76.57L262 74.42L268.65 72.5L275.4 70.82L282.26 69.39L289.21 68.21L296.26 67.27L303.39 66.6L310.6 66.2L317.89 66.06L325.18 66.2L332.39 66.6Z" id="b9v6dwtFE"></path></defs><g><g><g><use xlink:href="#b9v6dwtFE" opacity="1" fill="#fff18f" fill-opacity="1"></use></g></g></g></svg>